<?xml version="1.0" encoding="UTF-8" standalone="no"?>
<!-- Created with Inkscape (http://www.inkscape.org/) -->

<svg
   width="33.859207mm"
   height="9.253787mm"
   viewBox="0 0 33.859207 9.253787"
   version="1.1"
   id="svg1"
   xmlns="http://www.w3.org/2000/svg"
   xmlns:svg="http://www.w3.org/2000/svg">
  <defs
     id="defs1" />
  <g
     id="layer1"
     transform="translate(-79.904167,-142.34583)">
    <path
       style="font-weight:300;font-size:7.75064px;font-family:'Chakra Petch';-inkscape-font-specification:'Chakra Petch Light';text-align:center;letter-spacing:0px;text-anchor:middle;stroke-width:0.0384481;stroke-linecap:round"
       d="m 79.904167,146.09666 h 0.426285 v 0.74406 l 0.744061,-0.74406 h 1.426118 l 0.674306,0.67431 v 2.51121 l -0.674306,0.6743 h -1.480372 l -0.682057,-0.60455 v 2.24769 h -0.434035 z m 2.410449,3.46454 0.426285,-0.41854 v -2.23218 l -0.426285,-0.42628 h -1.108342 l -0.868072,0.86807 v 1.49587 l 0.782815,0.71306 z m 1.945414,-0.27902 v -2.51121 l 0.674306,-0.67431 h 1.883406 l 0.682056,0.67431 v 1.37186 h -2.805732 v 0.99208 l 0.434036,0.42629 h 1.495874 l 0.434035,-0.41854 v -0.34102 h 0.434036 v 0.47279 l -0.682056,0.68205 h -1.875655 z m 2.805732,-1.51913 v -0.85257 l -0.426285,-0.42628 h -1.519126 l -0.426285,0.42628 v 0.85257 z m 1.557875,-1.66639 h 0.426285 v 0.72081 l 0.72856,-0.72081 h 0.953329 v 0.38754 h -0.829319 l -0.844819,0.83706 v 2.63522 h -0.434036 z m 2.611977,3.26302 v -0.48054 h 0.434036 v 0.34878 l 0.348779,0.34103 h 1.488122 l 0.348779,-0.34103 v -0.68205 l -0.348779,-0.34878 h -1.666387 l -0.573548,-0.57355 v -0.93008 l 0.60455,-0.5968 h 1.743894 l 0.5968,0.5968 v 0.48054 h -0.434036 v -0.34878 l -0.348779,-0.34878 h -1.371863 l -0.35653,0.34878 v 0.65106 l 0.35653,0.34878 h 1.627634 l 0.60455,0.60455 v 0.92232 l -0.60455,0.60455 h -1.852403 z m 4.022579,-0.0775 v -2.51121 l 0.674306,-0.67431 h 1.922158 l 0.674306,0.67431 v 2.51121 l -0.674306,0.6743 h -1.922158 z m 2.410449,0.27902 0.426285,-0.41854 v -2.23993 l -0.426285,-0.41853 h -1.550128 l -0.426285,0.41853 v 2.23993 l 0.426285,0.41854 z m 2.02292,-3.46454 h 0.426288 v 0.89908 l 0.89907,-0.89908 h 1.13935 l 0.6743,0.67431 v 3.18551 h -0.43403 v -3.046 l -0.42629,-0.41853 h -0.82157 l -1.02308,1.01533 v 2.4492 h -0.434038 z m 4.224098,3.26302 v -1.01533 l 0.59679,-0.5813 h 2.09268 v -0.86032 l -0.42629,-0.42629 h -1.36411 l -0.43404,0.42629 v 0.34878 h -0.43403 v -0.48054 l 0.6743,-0.67431 h 1.7439 l 0.6743,0.67431 v 3.18551 h -0.42628 v -0.75181 l -0.77507,0.75181 h -1.32536 z m 1.8214,0.20927 0.86807,-0.85257 v -0.5658 h -1.91441 l -0.34103,0.32553 v 0.75956 l 0.34103,0.33328 z"
       id="text1-9-6"
       aria-label="persona" />
    <g
       id="g7"
       transform="matrix(0.07705741,0,0,0.07705741,107.02085,140.92027)">
      <path
         d="M 26,20 H 74 L 86,32 V 68 L 74,80 H 48 L 24,96 36,80 H 26 L 14,68 V 32 Z"
         fill="none"
         stroke="#111111"
         stroke-width="3"
         stroke-linejoin="miter"
         id="path1-0" />
      <line
         x1="14"
         y1="34"
         x2="86"
         y2="34"
         stroke="#111111"
         stroke-width="3"
         id="line1" />
      <circle
         cx="31"
         cy="27"
         r="2.5999999"
         fill="#ff5f57"
         id="circle1" />
      <circle
         cx="39"
         cy="27"
         r="2.5999999"
         fill="#febc2e"
         id="circle2" />
      <circle
         cx="47"
         cy="27"
         r="2.5999999"
         fill="#28c840"
         id="circle3-0" />
      <path
         d="M 33,58.4 34.564,61.436 37.6,63 34.564,64.564 33,67.6 31.436,64.564 28.4,63 31.436,61.436 Z"
         fill="#111111"
         id="path3-9" />
      <text
         x="56"
         y="66"
         text-anchor="middle"
         font-family="ui-monospace, 'SF Mono', Menlo, monospace"
         font-weight="700"
         font-size="26px"
         fill="#111111"
         id="text3-3">js</text>
    </g>
  </g>
</svg>
