<?xml version="1.0" encoding="UTF-8" standalone="no"?>
<!-- Created with Inkscape (http://www.inkscape.org/) -->

<svg
   width="37.26395mm"
   height="8.1442022mm"
   viewBox="0 0 37.26395 8.1442022"
   version="1.1"
   id="svg1"
   xmlns="http://www.w3.org/2000/svg"
   xmlns:svg="http://www.w3.org/2000/svg">
  <defs
     id="defs1" />
  <g
     id="layer1"
     transform="translate(-757.10494,-169.67609)">
    <g
       id="text6-6-7-0-8"
       style="font-size:15.2672px;font-family:'Myanmar MN';-inkscape-font-specification:'Myanmar MN, Normal';stroke-width:0.0636133"
       aria-label="runtype">
      <path
         style="font-size:9.87778px;font-family:Doto;-inkscape-font-specification:'Doto, @wght=800';font-variation-settings:'wght' 800"
         d="m 757.11483,170.67374 v 0 q -0.01,0 -0.01,0 0,0 0,0.01 v 0.79022 q 0,0.01 0,0.01 0,0 0.01,0 h 0.79022 q 0.01,0 0.01,0 0,0 0,-0.01 v -0.79022 q 0,-0.01 0,-0.01 0,0 -0.01,0 z m 1.97556,0 v 0 q -0.01,0 -0.01,0 0,0 0,0.01 v 0.79022 q 0,0.01 0,0.01 0,0 0.01,0 h 0.79022 q 0.01,0 0.01,0 0,0 0,-0.01 v -0.79022 q 0,-0.01 0,-0.01 0,0 -0.01,0 z m 0.98777,0 v 0 q -0.01,0 -0.01,0 0,0 0,0.01 v 0.79022 q 0,0.01 0,0.01 0,0 0.01,0 h 0.79023 q 0.01,0 0.01,0 0,0 0,-0.01 v -0.79022 q 0,-0.01 0,-0.01 0,0 -0.01,0 z m -2.96333,0.98778 v 0 q -0.01,0 -0.01,0 0,0 0,0.01 v 0.79023 q 0,0.01 0,0.01 0,0 0.01,0 h 0.79022 q 0.01,0 0.01,0 0,0 0,-0.01 v -0.79023 q 0,-0.01 0,-0.01 0,0 -0.01,0 z m 0.98778,0 v 0 q -0.01,0 -0.01,0 0,0 0,0.01 v 0.79023 q 0,0.01 0,0.01 0,0 0.01,0 h 0.79022 q 0.01,0 0.01,0 0,0 0,-0.01 v -0.79023 q 0,-0.01 0,-0.01 0,0 -0.01,0 z m 2.96333,0 v 0 q -0.01,0 -0.01,0 0,0 0,0.01 v 0.79023 q 0,0.01 0,0.01 0,0 0.01,0 h 0.79022 q 0.01,0 0.01,0 0,0 0,-0.01 v -0.79023 q 0,-0.01 0,-0.01 0,0 -0.01,0 z m -3.95111,0.98777 v 0 q -0.01,0 -0.01,0 0,0 0,0.01 v 0.79022 q 0,0.01 0,0.01 0,0 0.01,0 h 0.79022 q 0.01,0 0.01,0 0,0 0,-0.01 v -0.79022 q 0,-0.01 0,-0.01 0,0 -0.01,0 z m 0,0.98778 v 0 q -0.01,0 -0.01,0 0,0 0,0.01 v 0.79022 q 0,0.01 0,0.01 0,0 0.01,0 h 0.79022 q 0.01,0 0.01,0 0,0 0,-0.01 v -0.79022 q 0,-0.01 0,-0.01 0,0 -0.01,0 z m 0,0.98778 v 0 q -0.01,0 -0.01,0 0,0 0,0.01 v 0.79022 q 0,0.01 0,0.01 0,0 0.01,0 h 0.79022 q 0.01,0 0.01,0 0,0 0,-0.01 v -0.79022 q 0,-0.01 0,-0.01 0,0 -0.01,0 z m 5.92667,-3.95111 v 0 q -0.01,0 -0.01,0 0,0 0,0.01 v 0.79022 q 0,0.01 0,0.01 0,0 0.01,0 h 0.79022 q 0.01,0 0.01,0 0,0 0,-0.01 v -0.79022 q 0,-0.01 0,-0.01 0,0 -0.01,0 z m 3.95111,0 v 0 q -0.01,0 -0.01,0 0,0 0,0.01 v 0.79022 q 0,0.01 0,0.01 0,0 0.01,0 h 0.79023 q 0.01,0 0.01,0 0,0 0,-0.01 v -0.79022 q 0,-0.01 0,-0.01 0,0 -0.01,0 z m -3.95111,0.98778 v 0 q -0.01,0 -0.01,0 0,0 0,0.01 v 0.79023 q 0,0.01 0,0.01 0,0 0.01,0 h 0.79022 q 0.01,0 0.01,0 0,0 0,-0.01 v -0.79023 q 0,-0.01 0,-0.01 0,0 -0.01,0 z m 3.95111,0 v 0 q -0.01,0 -0.01,0 0,0 0,0.01 v 0.79023 q 0,0.01 0,0.01 0,0 0.01,0 h 0.79023 q 0.01,0 0.01,0 0,0 0,-0.01 v -0.79023 q 0,-0.01 0,-0.01 0,0 -0.01,0 z m -3.95111,0.98777 v 0 q -0.01,0 -0.01,0 0,0 0,0.01 v 0.79022 q 0,0.01 0,0.01 0,0 0.01,0 h 0.79022 q 0.01,0 0.01,0 0,0 0,-0.01 v -0.79022 q 0,-0.01 0,-0.01 0,0 -0.01,0 z m 3.95111,0 v 0 q -0.01,0 -0.01,0 0,0 0,0.01 v 0.79022 q 0,0.01 0,0.01 0,0 0.01,0 h 0.79023 q 0.01,0 0.01,0 0,0 0,-0.01 v -0.79022 q 0,-0.01 0,-0.01 0,0 -0.01,0 z m -3.95111,0.98778 v 0 q -0.01,0 -0.01,0 0,0 0,0.01 v 0.79022 q 0,0.01 0,0.01 0,0 0.01,0 h 0.79022 q 0.01,0 0.01,0 0,0 0,-0.01 v -0.79022 q 0,-0.01 0,-0.01 0,0 -0.01,0 z m 2.96334,0 v 0 q -0.01,0 -0.01,0 0,0 0,0.01 v 0.79022 q 0,0.01 0,0.01 0,0 0.01,0 h 0.79022 q 0.01,0 0.01,0 0,0 0,-0.01 v -0.79022 q 0,-0.01 0,-0.01 0,0 -0.01,0 z m 0.98777,0 v 0 q -0.01,0 -0.01,0 0,0 0,0.01 v 0.79022 q 0,0.01 0,0.01 0,0 0.01,0 h 0.79023 q 0.01,0 0.01,0 0,0 0,-0.01 v -0.79022 q 0,-0.01 0,-0.01 0,0 -0.01,0 z m -2.96333,0.98778 v 0 q -0.01,0 -0.01,0 0,0 0,0.01 v 0.79022 q 0,0.01 0,0.01 0,0 0.01,0 h 0.79022 q 0.01,0 0.01,0 0,0 0,-0.01 v -0.79022 q 0,-0.01 0,-0.01 0,0 -0.01,0 z m 0.98778,0 v 0 q -0.01,0 -0.01,0 0,0 0,0.01 v 0.79022 q 0,0.01 0,0.01 0,0 0.01,0 h 0.79022 q 0.01,0 0.01,0 0,0 0,-0.01 v -0.79022 q 0,-0.01 0,-0.01 0,0 -0.01,0 z m 1.97555,0 v 0 q -0.01,0 -0.01,0 0,0 0,0.01 v 0.79022 q 0,0.01 0,0.01 0,0 0.01,0 h 0.79023 q 0.01,0 0.01,0 0,0 0,-0.01 v -0.79022 q 0,-0.01 0,-0.01 0,0 -0.01,0 z m 1.97556,-3.95111 v 0 q -0.01,0 -0.01,0 0,0 0,0.01 v 0.79022 q 0,0.01 0,0.01 0,0 0.01,0 h 0.79023 q 0.01,0 0.01,0 0,0 0,-0.01 v -0.79022 q 0,-0.01 0,-0.01 0,0 -0.01,0 z m 1.97556,0 v 0 q -0.01,0 -0.01,0 0,0 0,0.01 v 0.79022 q 0,0.01 0,0.01 0,0 0.01,0 h 0.79022 q 0.01,0 0.01,0 0,0 0,-0.01 v -0.79022 q 0,-0.01 0,-0.01 0,0 -0.01,0 z m 0.98778,0 v 0 q -0.01,0 -0.01,0 0,0 0,0.01 v 0.79022 q 0,0.01 0,0.01 0,0 0.01,0 h 0.79022 q 0.01,0 0.01,0 0,0 0,-0.01 v -0.79022 q 0,-0.01 0,-0.01 0,0 -0.01,0 z m -2.96334,0.98778 v 0 q -0.01,0 -0.01,0 0,0 0,0.01 v 0.79023 q 0,0.01 0,0.01 0,0 0.01,0 h 0.79023 q 0.01,0 0.01,0 0,0 0,-0.01 v -0.79023 q 0,-0.01 0,-0.01 0,0 -0.01,0 z m 0.98778,0 v 0 q -0.01,0 -0.01,0 0,0 0,0.01 v 0.79023 q 0,0.01 0,0.01 0,0 0.01,0 h 0.79022 q 0.01,0 0.01,0 0,0 0,-0.01 v -0.79023 q 0,-0.01 0,-0.01 0,0 -0.01,0 z m 2.96334,0 v 0 q -0.01,0 -0.01,0 0,0 0,0.01 v 0.79023 q 0,0.01 0,0.01 0,0 0.01,0 h 0.79022 q 0.01,0 0.01,0 0,0 0,-0.01 v -0.79023 q 0,-0.01 0,-0.01 0,0 -0.01,0 z m -3.95112,0.98777 v 0 q -0.01,0 -0.01,0 0,0 0,0.01 v 0.79022 q 0,0.01 0,0.01 0,0 0.01,0 h 0.79023 q 0.01,0 0.01,0 0,0 0,-0.01 v -0.79022 q 0,-0.01 0,-0.01 0,0 -0.01,0 z m 3.95112,0 v 0 q -0.01,0 -0.01,0 0,0 0,0.01 v 0.79022 q 0,0.01 0,0.01 0,0 0.01,0 h 0.79022 q 0.01,0 0.01,0 0,0 0,-0.01 v -0.79022 q 0,-0.01 0,-0.01 0,0 -0.01,0 z m -3.95112,0.98778 v 0 q -0.01,0 -0.01,0 0,0 0,0.01 v 0.79022 q 0,0.01 0,0.01 0,0 0.01,0 h 0.79023 q 0.01,0 0.01,0 0,0 0,-0.01 v -0.79022 q 0,-0.01 0,-0.01 0,0 -0.01,0 z m 3.95112,0 v 0 q -0.01,0 -0.01,0 0,0 0,0.01 v 0.79022 q 0,0.01 0,0.01 0,0 0.01,0 h 0.79022 q 0.01,0 0.01,0 0,0 0,-0.01 v -0.79022 q 0,-0.01 0,-0.01 0,0 -0.01,0 z m -3.95112,0.98778 v 0 q -0.01,0 -0.01,0 0,0 0,0.01 v 0.79022 q 0,0.01 0,0.01 0,0 0.01,0 h 0.79023 q 0.01,0 0.01,0 0,0 0,-0.01 v -0.79022 q 0,-0.01 0,-0.01 0,0 -0.01,0 z m 3.95112,0 v 0 q -0.01,0 -0.01,0 0,0 0,0.01 v 0.79022 q 0,0.01 0,0.01 0,0 0.01,0 h 0.79022 q 0.01,0 0.01,0 0,0 0,-0.01 v -0.79022 q 0,-0.01 0,-0.01 0,0 -0.01,0 z"
         id="path1" />
      <path
         style="font-size:9.87778px;font-family:Newsreader;-inkscape-font-specification:'Newsreader, @opsz=72';font-variation-settings:'opsz' 72"
         d="m 776.52962,174.22974 q 0,0.36548 0.22719,0.55315 0.23213,0.18274 0.60748,0.18274 0.21731,0 0.45438,-0.0395 0.23707,-0.0395 0.55315,-0.13335 v 0.13829 q -0.45931,0.27164 -0.74577,0.42475 -0.28151,0.14816 -0.48401,0.20743 -0.20249,0.0642 -0.42474,0.0642 -0.28152,0 -0.5334,-0.12841 -0.24695,-0.12841 -0.40499,-0.40992 -0.15805,-0.28152 -0.15805,-0.74084 v -3.24979 l -0.62724,-0.38523 v -0.0691 q 0.0494,-0.0346 0.14817,-0.0938 0.0988,-0.0642 0.23213,-0.15311 0.13829,-0.0889 0.31115,-0.20249 0.17286,-0.1136 0.37535,-0.24201 0.2025,-0.13335 0.42475,-0.27658 h 0.0444 v 0.96802 z m -0.30621,-3.23004 v -0.5334 h 2.01013 l -0.079,0.5334 z m 5.53155,3.56588 -0.5087,1.08656 -2.29165,-4.83517 -0.63218,-0.18768 v -0.16299 h 2.35092 v 0.16299 l -0.71614,0.1778 z m -2.19286,3.25473 q -0.31609,0 -0.52353,-0.16298 -0.20743,-0.15805 -0.20743,-0.45932 0,-0.14323 0.0494,-0.23707 0.0494,-0.0889 0.12347,-0.13335 0.079,-0.0444 0.14817,-0.0444 0.0691,0 0.17286,0.0593 0.10372,0.0593 0.25188,0.11853 0.14817,0.0593 0.34079,0.0593 0.22225,0 0.39017,-0.0691 0.16792,-0.0642 0.31115,-0.25189 0.14816,-0.18767 0.29633,-0.54327 l 0.40499,-0.96309 0.20743,-0.51364 1.25448,-3.90173 -0.73589,-0.14816 v -0.16299 h 1.78788 v 0.16299 l -0.63712,0.14323 -2.04964,5.51674 q -0.21731,0.58278 -0.45932,0.91369 -0.23706,0.33584 -0.51364,0.47413 -0.27658,0.14323 -0.61242,0.14323 z m 8.82086,-4.67713 q 0,-1.06186 -0.39018,-1.58044 -0.39017,-0.51859 -1.17051,-0.51859 -0.27658,0 -0.52847,0.0642 -0.25188,0.0593 -0.48401,0.19756 -0.23212,0.13828 -0.45437,0.37535 l -0.0741,-0.0988 q 0.32597,-0.35066 0.60255,-0.58279 0.28151,-0.23706 0.52352,-0.37535 0.242,-0.13829 0.45932,-0.19756 0.21731,-0.0593 0.4198,-0.0593 0.647,0 1.10631,0.30127 0.46426,0.29633 0.7112,0.82973 0.24695,0.5334 0.24695,1.24954 0,0.90382 -0.34572,1.55081 -0.34079,0.64206 -0.94827,0.98284 -0.60748,0.34079 -1.40265,0.34079 -0.28645,0 -0.58772,-0.0445 -0.29634,-0.0395 -0.57785,-0.12842 -0.28152,-0.0889 -0.52353,-0.22718 h 0.66181 v 2.21756 l 0.80504,0.14816 v 0.13335 h -2.42005 v -0.13335 l 0.70626,-0.14816 v -6.14398 q -0.0642,-0.0395 -0.15805,-0.0988 -0.0938,-0.0593 -0.23212,-0.14323 -0.13335,-0.0889 -0.31609,-0.20249 v -0.0889 l 1.59526,-0.44944 h 0.0198 v 0.80504 3.15595 q 0,0.32103 0.16299,0.57291 0.16298,0.25188 0.4445,0.39511 0.28151,0.14323 0.62724,0.14323 0.48401,0 0.82479,-0.25682 0.34079,-0.26176 0.51859,-0.76059 0.1778,-0.50377 0.1778,-1.22485 z m 4.07951,-2.77565 q 0.51858,0 0.90382,0.21731 0.38523,0.21237 0.61242,0.63218 0.22719,0.41486 0.27164,1.02728 h -3.26955 v -0.28645 h 2.72627 l -0.38523,0.19755 q -0.0494,-0.5334 -0.1778,-0.87418 -0.12347,-0.34078 -0.33091,-0.50377 -0.20249,-0.16792 -0.49883,-0.16792 -0.40005,0 -0.6865,0.23213 -0.28646,0.23213 -0.43956,0.67663 -0.15311,0.43956 -0.15311,1.0668 0,0.82479 0.21237,1.34338 0.21732,0.51364 0.62724,0.75071 0.40993,0.23706 0.99766,0.23706 0.27164,0 0.5334,-0.0741 0.26176,-0.0741 0.48895,-0.22225 0.23213,-0.14817 0.39511,-0.37042 l 0.079,0.0543 q -0.30621,0.48895 -0.61736,0.78035 -0.30621,0.28645 -0.64699,0.41486 -0.33585,0.12348 -0.7359,0.12348 -0.64205,0 -1.16064,-0.28646 -0.51364,-0.29139 -0.81491,-0.85443 -0.29634,-0.56797 -0.29634,-1.3977 0,-0.7359 0.27658,-1.35326 0.28152,-0.61736 0.80998,-0.98778 0.5334,-0.37535 1.27917,-0.37535 z"
         id="path2" />
    </g>
  </g>
</svg>
